<svg xmlns="http://www.w3.org/2000/svg" width="151.777" height="149.677" viewBox="0 0 151.777 149.677">
  <g id="icon_image_transactions" transform="translate(-5.267 -5.742)">
    <path id="Path_7369" data-name="Path 7369" d="M67.913,34.467H99.218a12.686,12.686,0,0,0,9.735,5.488l-.059,13.858a13.155,13.155,0,0,0-7.08,7.947H27.994a12.6,12.6,0,0,0-4.585-9.027l-.038-7.317a1.912,1.912,0,1,0-3.818-.071l.01,8.37a1.906,1.906,0,0,0,.9,1.663,7.852,7.852,0,0,1,3.61,7.991,1.913,1.913,0,0,0,1.89,2.228h77.31a1.911,1.911,0,0,0,1.89-1.581c.578-3.192,3.1-6.244,6.066-6.889a1.912,1.912,0,0,0,1.51-1.918l-.011-17.5a1.915,1.915,0,0,0-2.327-1.8c-3.5.786-6.908-1.493-8.359-4.245a1.9,1.9,0,0,0-1.693-1.014H67.913C65.664,30.649,65.494,34.467,67.913,34.467Z" transform="translate(12.985 22.641)" fill="#fff" fill-rule="evenodd"/>
    <path id="Path_7370" data-name="Path 7370" d="M34.316,62.394c1.76-.019,4.117.786,6.664,3.917L49.509,76.8a8.119,8.119,0,0,0-1.623,1.351l-8.508-1.987-7.508-9.426C29.912,64.283,31.879,62.415,34.316,62.394Zm-3.022-3.06a6.6,6.6,0,0,0-3.818,3.579,5.07,5.07,0,0,0,.578,5.169l5.438,6.841c-5.139-.59-8.888,1.163-10.747,3.787a6.549,6.549,0,0,0-1.233,4.923,5.061,5.061,0,0,0,3.3,3.827s36.028,12.507,54.124,18.51a20.019,20.019,0,0,0,11.316.813l29.2-7.872c5.645-1.521,7.815-.51,10.757,0,3.27.565,9.794,1.689,9.794,1.689a1.917,1.917,0,0,0,.657-3.778s-6.525-1.124-9.783-1.691c-2.953-.508-6.036-1.611-12.02,0l-29.5,7.954a17.3,17.3,0,0,1-9.2-.737C62.119,96.2,26.835,84.424,26.058,83.84c-1.222-.926-.773-1.9-.2-2.924.914-1.619,3.77-3.11,9.058-1.869L46.292,81.7c-.527,2.237,1.191,4.356,3.726,5.209l30.842,10.4a1.916,1.916,0,1,0,1.224-3.631l-30.851-10.4c-1.632-.548-1.222-1.5-.578-2.5.907-1.413,4.119-2.674,9.407-1.283L85.3,86.165a1.924,1.924,0,0,0,.943.01l22.947-5.618c6.353-1.563,10.381-1.3,20.163,1.918a1.91,1.91,0,1,0,1.193-3.629c-10.052-3.321-15.4-3.7-22.269-2.02L85.812,82.345,61.027,75.783a17.564,17.564,0,0,0-7.777-.437L43.935,63.881a14.126,14.126,0,0,0-6.561-4.732A9.279,9.279,0,0,0,31.294,59.334Z" transform="translate(14.686 48.152)" fill="#fff"/>
    <path id="Path_7371" data-name="Path 7371" d="M84.965,62.36c-5.406.179-11,2.168-19.824,6.315l-9.6,4.522a1.914,1.914,0,1,0,1.63,3.459l9.615-4.513c8.68-4.089,13.75-5.8,18.314-5.965s8.966,1.262,16.374,3.9l8.628,1.5a1.909,1.909,0,1,0,.649-3.757l-8.313-1.424C95.206,63.829,90.285,62.192,84.965,62.36Z" transform="translate(44.597 51.448)" fill="#fff"/>
    <path id="Path_7372" data-name="Path 7372" d="M59.411,48.268H130.4V93.037L27.51,93.028V56.284l1.372,1.728c4.2,5.251,10.9,7.061,17.409,8.145,10.39,1.729,15.51,4.852,26.239,9.821,2.453,1.134,4.6,1.689,6.57.786S81.943,73.9,82.569,71.6A11.925,11.925,0,0,0,80.62,61.291a22.7,22.7,0,0,0-8.409-6.681ZM28.212,9.1l5.478,6.074c3.976,4.406,6.385,5.887,12.358,7.926l21.236,7.235c2.922.995,5.219,1.493,6.931,2.029A8.065,8.065,0,0,1,78,34.458l9.575,9.993H56.318a7.184,7.184,0,0,1,.767-1.55,1.915,1.915,0,0,0-3.241-2.039,7.779,7.779,0,0,0-1.453,5.706,6.5,6.5,0,0,0,3.749,4.354L70.5,58.03a19.265,19.265,0,0,1,7.021,5.5A7.868,7.868,0,0,1,78.9,70.587c-.876,3.329-2.7,2.854-4.765,1.909-10.608-4.9-16.285-8.3-27.209-10.123-6.234-1.035-11.862-2.745-15.053-6.75L22.7,44.139c-1.623-2.039-2.756-5.051-3.909-8.172s-2.306-6.374-4.581-8.838L8.6,21.065c-2.077-2.249-4.373.914-2.823,2.583L11.4,29.724c1.521,1.649,2.655,4.463,3.808,7.567s2.306,6.483,4.5,9.226l3.955,4.961V94.944a1.907,1.907,0,0,0,1.92,1.909H132.3a1.911,1.911,0,0,0,1.92-1.9V46.359a1.926,1.926,0,0,0-1.92-1.909H92.879L80.769,31.814a12.062,12.062,0,0,0-5.4-3.083c-1.97-.626-4.137-1.092-6.851-2.018L47.3,19.467c-5.809-1.97-6.952-2.644-10.758-6.862L31.062,6.533C29.008,4.265,26.7,7.426,28.212,9.1Z" transform="translate(0 0)" fill="#fff"/>
  </g>
</svg>
