<svg xmlns="http://www.w3.org/2000/svg" width="128.154" height="71.215" viewBox="0 0 128.154 71.215">
  <g id="icon_image_easypay" transform="translate(-0.001 0)">
    <g id="Rectangle_1991" data-name="Rectangle 1991" transform="translate(0 0)">
      <rect id="Rectangle_1992" data-name="Rectangle 1992" width="128" height="71" transform="translate(0.149 0.215)" fill="none"/>
      <path id="Path_7324" data-name="Path 7324" d="M647.208,600.173H522.427a1.685,1.685,0,0,1-1.686-1.686V531.038a1.685,1.685,0,0,1,1.686-1.686H647.208a1.685,1.685,0,0,1,1.686,1.686v67.449A1.685,1.685,0,0,1,647.208,600.173ZM524.113,596.8H645.522V532.724H524.113Z" transform="translate(-520.74 -529.352)" fill="#9349de"/>
    </g>
    <g id="Group_1329" data-name="Group 1329" transform="translate(12.108 7.939)">
      <path id="Path_7325" data-name="Path 7325" d="M547.928,563.246H533.191l-.118-1.561a7.833,7.833,0,0,0-1.875-4.519,10.879,10.879,0,0,0-5.325-1.943l-1.541-.131V543.257a1.686,1.686,0,0,1,3.372,0v8.826a14.325,14.325,0,0,1,5.625,2.458l.26.233a11.292,11.292,0,0,1,2.62,5.1h11.719a1.686,1.686,0,1,1,0,3.372Z" transform="translate(-524.331 -508.302)" fill="#8840d9"/>
      <path id="Path_7326" data-name="Path 7326" d="M564.078,563.245H549.34a1.686,1.686,0,1,1,0-3.372h11.723a11.305,11.305,0,0,1,2.617-5.1l.26-.233a14.327,14.327,0,0,1,5.625-2.458v-8.826a1.686,1.686,0,0,1,3.373,0V555.09l-1.541.132a10.951,10.951,0,0,0-5.328,1.943,7.872,7.872,0,0,0-1.868,4.519Z" transform="translate(-468.998 -508.304)" fill="#8840d9"/>
      <path id="Path_7327" data-name="Path 7327" d="M568.709,556.989a1.687,1.687,0,0,1-1.686-1.686V543.584a11.277,11.277,0,0,1-5.1-2.617l-.236-.263a14.328,14.328,0,0,1-2.455-5.625H550.41a1.686,1.686,0,0,1,0-3.372h11.827l.135,1.538a10.949,10.949,0,0,0,1.946,5.332,7.829,7.829,0,0,0,4.516,1.872l1.562.118V555.3A1.685,1.685,0,0,1,568.709,556.989Z" transform="translate(-466.46 -531.706)" fill="#8840d9"/>
      <path id="Path_7328" data-name="Path 7328" d="M526.017,556.989a1.685,1.685,0,0,1-1.686-1.686V540.565l1.558-.118a7.839,7.839,0,0,0,4.522-1.872,10.982,10.982,0,0,0,1.943-5.328l.135-1.541H544.32a1.686,1.686,0,1,1,0,3.372h-8.826a14.372,14.372,0,0,1-2.455,5.625l-.24.263a11.276,11.276,0,0,1-5.1,2.617V555.3A1.687,1.687,0,0,1,526.017,556.989Z" transform="translate(-524.331 -531.706)" fill="#8840d9"/>
    </g>
    <g id="Group_1328" data-name="Group 1328" transform="translate(43.842 16.862)">
      <g id="Ellipse_816" data-name="Ellipse 816">
        <circle id="Ellipse_817" data-name="Ellipse 817" cx="20" cy="20" r="20" transform="translate(0.307 0.353)" fill="none"/>
        <path id="Path_7329" data-name="Path 7329" d="M553.976,574.821a20.235,20.235,0,1,1,20.235-20.235A20.257,20.257,0,0,1,553.976,574.821Zm0-37.1a16.862,16.862,0,1,0,16.862,16.862A16.881,16.881,0,0,0,553.976,537.724Z" transform="translate(-533.74 -534.352)" fill="#8840d9"/>
      </g>
      <g id="Group_1327" data-name="Group 1327" transform="translate(14.461 7.577)">
        <path id="Path_7323" data-name="Path 7323" d="M542.893,561.66a17.1,17.1,0,0,1,0-3.055,10.241,10.241,0,0,1-4.627-1.332c-.29-.371-.546-1.845.725-2.023s2.664,1.3,4.357,1.3c2.148,0,3.6-1.241,3.6-2.964,0-1.666-1.177-2.7-3.416-3.6-3.086-1.207-4.991-2.6-4.991-5.23a4.958,4.958,0,0,1,4.566-4.87,24.3,24.3,0,0,1,0-3.055c.128-.354,1.723-.256,1.875,0a18.567,18.567,0,0,1,0,2.934,8.686,8.686,0,0,1,3.932,1.059c.455.337-.185,1.9-.755,2s-1.875-1.029-3.811-1.029c-2.33,0-3.207,1.393-3.207,2.6,0,1.572,1.12,2.361,3.75,3.447,3.116,1.271,4.688,2.843,4.688,5.537a5.264,5.264,0,0,1-4.779,5.143,16.911,16.911,0,0,1,0,3.146C544.6,561.988,543.075,562.015,542.893,561.66Z" transform="translate(-538.029 -536.599)" fill="#9349de"/>
      </g>
    </g>
  </g>
</svg>
