<svg id="icon_image_honest" xmlns="http://www.w3.org/2000/svg" width="151.761" height="93.643" viewBox="0 0 151.761 93.643">
  <path id="Path_7303" data-name="Path 7303" d="M69.274,97.35a5.253,5.253,0,0,1,2.913,1.021,3.887,3.887,0,0,1,.479,5.765l-4.19,4.914a4.1,4.1,0,1,1-6.245-5.315l4.19-4.914A3.74,3.74,0,0,1,69.274,97.35Zm-9.018-7.881a3.786,3.786,0,0,1,2.775,1.1,4.173,4.173,0,0,1,.467,5.776l-4.19,4.918a4.1,4.1,0,0,1-6.243-5.316l4.19-4.918A4.138,4.138,0,0,1,60.255,89.469Zm-10.313-6.4A3.729,3.729,0,0,1,52.7,84.143a4.161,4.161,0,0,1,.467,5.776L50.153,93.46a4.1,4.1,0,0,1-6.253-5.3l3.022-3.543A4.128,4.128,0,0,1,49.942,83.066ZM41.075,77.69a3.743,3.743,0,0,1,1.927.6c1.425.858,1.417,3.353-.18,5.217l-1.837,2.166c-1.586,1.867-3.869,2.086-5.136,1.007s-1.4-3.352.192-5.217L37.884,79.3A4.711,4.711,0,0,1,41.075,77.69ZM12.376,20.5a1.919,1.919,0,0,0-.946,3.551L39.738,41.883c-3.56,17.4-8.978,28.417-24.489,43.656L8.487,81.279C6.265,79.6,3.969,83.246,6.451,84.522l8.191,5.156A1.9,1.9,0,0,0,17,89.44c2.264-2.176,4.321-4.269,6.205-6.314L31.348,86.4a6.532,6.532,0,0,0,2.017,3.2,6.708,6.708,0,0,0,5.765,1.377,7.822,7.822,0,0,0,9.17,7.613,7.8,7.8,0,0,0,9.17,7.789,7.4,7.4,0,0,0,2.743,6.058,8.435,8.435,0,0,0,11.311-1.049c3.183.758,6.762,1.925,10.415,1.936A11.155,11.155,0,0,0,92.051,107.3c6.483,1.735,12.33-1.456,13.956-6.184,4.129.707,8.9.9,11.989-1a8.231,8.231,0,0,0,3.871-7.069,8.355,8.355,0,0,0,4.987-.9,9.74,9.74,0,0,0,4-4.3,11.962,11.962,0,0,0,.62-1.568l7.86-3.16c1.885,2.057,3.939,4.15,6.194,6.326a1.927,1.927,0,0,0,2.354.237l8.18-5.156a1.921,1.921,0,1,0-2.036-3.242l-6.751,4.259c-15.513-15.239-20.94-26.253-24.489-43.656L151.1,24.053a1.919,1.919,0,1,0-2.057-3.24L119.474,39.435a1.9,1.9,0,0,0-.866,1.986c3.014,15.39,7.414,26.3,18.014,38.654L131.8,82.011a5.546,5.546,0,0,0-2.8-4.133c-9.078-4.646-23.57-10.413-31.529-14.461-2.656-1.356-2.723-3.679-2.974-5.826l-.856-7.519,1.335-1.04a1.916,1.916,0,1,0-2.323-3.041L86.34,50.878a1.985,1.985,0,0,0-.519.619C84.336,54.31,83.4,56.744,82,58.717a12.335,12.335,0,0,1-6.824,5.069c-2.245.737-3.124.287-2.813-1.417l2.442-13.716c.538-3.024.27-3.093,2.645-5.248L88.829,33.071c1.358-1.226,2.036-1.254,3.014-1.067a19.751,19.751,0,0,1,3.8,1.616L111.6,41.312a1.919,1.919,0,1,0,1.657-3.461l-15.949-7.67a17.954,17.954,0,0,0-4.757-1.955,7.385,7.385,0,0,0-6.3,2.005l-3.281,2.982-5-1.5c-2.813-.839-5.7-1.308-8.109-.138L49.293,41.532a1.914,1.914,0,1,0,1.676,3.442l20.576-9.945c1.915-.925,3.692-.128,5.338.37l2.771.829-4.776,4.338c-2.716,2.474-3.321,4.4-3.861,7.41L68.582,61.7c-.868,4.939,3.729,7.324,8,5.657a17.907,17.907,0,0,0,8.559-6.433A57.422,57.422,0,0,0,89,53.663l1.1-.848.6,5.217c.467,4.06,1.687,7.032,4.979,8.777,8.339,4.422,22.869,10.035,31.577,14.494.46.23.741.659.839,1.565a6.354,6.354,0,0,1-.678,3.284,6.039,6.039,0,0,1-2.405,2.622,4.424,4.424,0,0,1-3.65.289c-8.409-2.543-25.246-7.64-25.246-7.64A1.922,1.922,0,1,0,95.008,85.1l22.934,6.923a4.143,4.143,0,0,1-2.005,4.861c-1.837,1.147-5.008,1.624-8.81.578L89.155,92.514a1.914,1.914,0,1,0-1.017,3.679l14.172,3.9c-.73,2.174-3.453,4.977-8.618,3.669l-11.024-2.8a1.92,1.92,0,0,0-.946,3.721l6.464,1.637c-1.706,2.612-3.639,3.181-6.236,3.172a35.042,35.042,0,0,1-7.638-1.377l1.275-1.5a7.96,7.96,0,0,0-.91-11.183,7.877,7.877,0,0,0-6.412-1.743A7.847,7.847,0,0,0,57.859,86.2a7.814,7.814,0,0,0-2.681-4.966,7.928,7.928,0,0,0-7.461-1.528A6.574,6.574,0,0,0,45.5,75.356C42.4,72.734,37.685,73.6,34.95,76.811l-1.844,2.155a8.734,8.734,0,0,0-1.727,3.311L25.9,80.084C36.5,67.735,40.895,56.811,43.909,41.421a1.912,1.912,0,0,0-.868-1.994L13.466,20.8A1.907,1.907,0,0,0,12.376,20.5Z" transform="translate(-5.376 -20.496)" fill="#9349de"/>
  <path id="Path_7304" data-name="Path 7304" d="M8.895,41.335A1.679,1.679,0,1,1,7.211,43.01,1.662,1.662,0,0,1,8.895,41.335Zm0-1.756a3.433,3.433,0,1,0,3.427,3.431A3.446,3.446,0,0,0,8.895,39.579Z" transform="translate(4.601 1.443)" fill="#9349de" fill-rule="evenodd"/>
</svg>
