<svg xmlns="http://www.w3.org/2000/svg" width="130.774" height="141.112" viewBox="0 0 130.774 141.112">
  <g id="icon_image_heart_hands" transform="translate(-6 -2.992)">
    <g id="Hand_Love" data-name="Hand Love" transform="translate(6 2.992)">
      <path id="Path_7368" data-name="Path 7368" d="M66.225,116.573H61.063V107a15.547,15.547,0,0,0-4.821-11.227L29.6,70.453a6.736,6.736,0,0,0-1.227-.907V57.208a6.03,6.03,0,0,0-6.022-6.022,5.954,5.954,0,0,0-2.581.6V44.3A6.883,6.883,0,0,0,6,44.3V83.756a10.257,10.257,0,0,0,3.025,7.3l15.607,15.607a6.839,6.839,0,0,1,2.017,4.869v5.039H21.486a1.721,1.721,0,0,0-1.721,1.721v13.766a1.721,1.721,0,0,0,1.721,1.721h3.441v8.6a1.721,1.721,0,0,0,3.441,0v-8.6H59.342v8.6a1.721,1.721,0,0,0,3.441,0v-8.6h3.441a1.721,1.721,0,0,0,1.721-1.721V118.293A1.721,1.721,0,0,0,66.225,116.573ZM22.347,54.627a2.584,2.584,0,0,1,2.581,2.581v11.4a6.632,6.632,0,0,0-4.614,1.963,6.926,6.926,0,0,0-.546.617c0-.064,0-.128,0-.192V57.208a2.584,2.584,0,0,1,2.581-2.581Zm4.719,49.6L11.458,88.625a6.839,6.839,0,0,1-2.017-4.869V44.3a3.441,3.441,0,0,1,6.883,0V71a11.966,11.966,0,0,0,3.529,8.517l15.9,15.9a1.721,1.721,0,1,0,2.433-2.433L22.747,77.544a3.209,3.209,0,1,1,4.48-4.6L53.872,98.264A12.088,12.088,0,0,1,57.621,107v9.576H30.09v-5.039a10.258,10.258,0,0,0-3.025-7.3ZM64.5,130.338h-41.3V120.014H64.5ZM129.891,37.42a6.89,6.89,0,0,0-6.883,6.883V51.79a5.954,5.954,0,0,0-2.581-.6,6.03,6.03,0,0,0-6.022,6.022V69.546a6.744,6.744,0,0,0-1.227.908L86.532,95.768A15.554,15.554,0,0,0,81.711,107v9.576H76.549a1.721,1.721,0,0,0-1.721,1.721v13.766a1.721,1.721,0,0,0,1.721,1.721H79.99v8.6a1.721,1.721,0,1,0,3.441,0v-8.6H114.4v8.6a1.721,1.721,0,0,0,3.441,0v-8.6h3.441a1.721,1.721,0,0,0,1.721-1.721V118.293a1.721,1.721,0,0,0-1.721-1.721h-5.162v-5.039a6.839,6.839,0,0,1,2.016-4.868l15.607-15.607a10.258,10.258,0,0,0,3.025-7.3V44.3a6.89,6.89,0,0,0-6.883-6.883Zm-9.464,17.207a2.584,2.584,0,0,1,2.581,2.581V71c0,.064,0,.128,0,.192a6.921,6.921,0,0,0-.546-.617,6.629,6.629,0,0,0-4.614-1.962v-11.4a2.584,2.584,0,0,1,2.581-2.581Zm-.86,75.711H78.27V120.014h41.3Zm13.766-46.582a6.839,6.839,0,0,1-2.016,4.868l-15.607,15.607a10.258,10.258,0,0,0-3.025,7.3v5.039H85.152V107A12.1,12.1,0,0,1,88.9,98.263L115.547,72.95a3.209,3.209,0,1,1,4.48,4.595L104.584,92.987a1.721,1.721,0,1,0,2.433,2.433l15.9-15.9A11.966,11.966,0,0,0,126.449,71V44.3a3.441,3.441,0,1,1,6.883,0Zm-38-80.021a25.1,25.1,0,0,0-23.95,6.752,25.1,25.1,0,0,0-23.95-6.752C27.744,8.542,21.852,33.666,36.753,47.4L70.22,78.262a1.721,1.721,0,0,0,2.332,0L106.02,47.4C120.889,33.7,115.067,8.551,95.337,3.735Zm8.352,41.139-32.3,29.782-32.3-29.782c-12.785-11.787-7.941-33.62,9.168-37.8a21.7,21.7,0,0,1,20.808,5.952l1.1,1.117a1.768,1.768,0,0,0,2.457,0l1.1-1.117A21.7,21.7,0,0,1,94.521,7.077C111.637,11.255,116.482,33.079,103.689,44.874ZM55.208,11.609a1.721,1.721,0,0,1-1.721,1.721A14.378,14.378,0,0,0,39.445,23.607a1.721,1.721,0,1,1-3.29-1.008A17.758,17.758,0,0,1,53.488,9.889,1.721,1.721,0,0,1,55.208,11.609Z" transform="translate(-6 -2.992)" fill="#fff"/>
    </g>
  </g>
</svg>
