<svg xmlns="http://www.w3.org/2000/svg" width="137.916" height="30.533" viewBox="0 0 137.916 30.533">
  <path id="MKTFY_Logo" data-name="MKTFY Logo" d="M5.76-21.467V-52H14.4l4.6,12.5q.423,1.268.8,2.631t.8,2.725h.188q.423-1.362.8-2.725t.8-2.631L26.8-52h8.643v30.533H28.12v-9.019q0-1.174.117-2.584t.258-2.889q.141-1.48.329-2.889t.329-2.537h-.188l-2.537,7.328-3.758,10.1H18.349l-3.758-10.1-2.443-7.328h-.188q.141,1.127.329,2.537t.329,2.889q.141,1.48.258,2.889t.117,2.584v9.019Zm36.452,0V-52h8.08v11.368h.188L58.183-52h8.831L57.9-39.6,68.8-21.467H59.968L53.2-33.21l-2.912,4.134v7.61Zm33.915,0V-45.236h-8.08V-52H92.286v6.764h-8.08v23.769Zm20.669,0V-52h19.917v6.764H104.875v5.825h10.146v6.764H104.875v11.18Zm29.594,0V-31.989L117.183-52h8.643l2.255,6.388q.564,1.738,1.127,3.382t1.174,3.429h.188q.611-1.785,1.2-3.429t1.2-3.382L135.221-52h8.455l-9.207,20.011v10.522Z" transform="translate(-5.76 52)" fill="#fff"/>
</svg>
